# xmcd
#
# Track frame offsets:
#	150
#	19910
#	40113
#	57116
#	62502
#	79826
#	93666
#	110434
#	128553
#	148741
#	172586
#
# Disc length: 2589 seconds
#
# Revision: 0
# Processed by: cddbd v1.5.1PL0 Copyright (c) Steve Scherf et al.
# Submitted via: dBpowerAMP V4.0
#
DISCID=870a1b0b
DTITLE=Jerry Pellegrino - The Tropical Cowboy
DYEAR=2002
DGENRE=Country
TTITLE0=How Can I Miss You (If You Won't Go Away)
TTITLE1=Cool Your Jets
TTITLE2=If The Love Fits, Wear It
TTITLE3=The Beach
TTITLE4=The Beach Blues
TTITLE5=Little Girl From The Mountains
TTITLE6=Stuck In Construction
TTITLE7=Go Way
TTITLE8=Show Me A Little Honesty
TTITLE9=The Tropical Cowboy
TTITLE10=Seize The Day
EXTD=
EXTT0=
EXTT1=
EXTT2=
EXTT3=
EXTT4=
EXTT5=
EXTT6=
EXTT7=
EXTT8=
EXTT9=
EXTT10=
PLAYORDER=
